<svg width="248" height="68" viewBox="0 0 248 68" fill="none" xmlns="http://www.w3.org/2000/svg">
<g filter="url(#filter0_dddddd_1_18)">
<path d="M23.1643 47.576C17.5749 47.576 13.2443 46.3813 10.1723 43.992C7.10025 41.6027 5.35092 38.0827 4.92425 33.432L14.7163 32.024C14.9723 34.2427 15.8469 35.9493 17.3403 37.144C18.8336 38.296 20.9029 38.872 23.5483 38.872C25.8096 38.872 27.5376 38.488 28.7323 37.72C29.9696 36.9093 30.5883 35.7787 30.5883 34.328C30.5883 33.0053 29.9483 31.96 28.6683 31.192C27.3883 30.424 25.2763 29.6987 22.3323 29.016C19.1749 28.248 16.5083 27.3307 14.3323 26.264C12.1563 25.1547 10.5136 23.7253 9.40425 21.976C8.29492 20.2267 7.74025 18.008 7.74025 15.32C7.74025 12.504 8.46558 10.008 9.91625 7.832C11.3669 5.656 13.3936 3.97066 15.9963 2.776C18.5989 1.53866 21.6069 0.919998 25.0203 0.919998C29.4576 0.919998 33.0843 2.05066 35.9003 4.312C38.7163 6.57333 40.3376 9.66667 40.7643 13.592L31.6123 15.128C31.2709 13.3787 30.4816 12.0347 29.2443 11.096C28.0069 10.1147 26.4496 9.624 24.5723 9.624C22.6949 9.624 21.1803 10.072 20.0283 10.968C18.8763 11.8213 18.3003 12.9947 18.3003 14.488C18.3003 15.8533 18.8549 16.9627 19.9643 17.816C21.0736 18.6267 23.1003 19.3947 26.0443 20.12C29.1589 20.888 31.8469 21.7627 34.1083 22.744C36.3696 23.6827 38.0976 24.984 39.2923 26.648C40.5296 28.312 41.1483 30.5733 41.1483 33.432C41.1483 36.2053 40.4016 38.6587 38.9083 40.792C37.4149 42.9253 35.3029 44.5893 32.5723 45.784C29.8843 46.9787 26.7483 47.576 23.1643 47.576ZM46.2448 59.8V14.424H56.1008L55.7808 19.416C58.1274 15.7467 61.6048 13.912 66.2128 13.912C69.1141 13.912 71.5888 14.5733 73.6368 15.896C75.6848 17.2187 77.2421 19.0533 78.3088 21.4C79.3754 23.7467 79.9088 26.4347 79.9088 29.464C79.9088 33.0907 79.1621 36.2693 77.6688 39C76.1754 41.7307 74.1701 43.864 71.6528 45.4C69.1354 46.8933 66.3194 47.64 63.2048 47.64C61.7114 47.64 60.3461 47.4267 59.1088 47C57.9141 46.5733 56.8474 45.976 55.9088 45.208L56.0368 47V59.8H46.2448ZM62.1808 39.128C64.5274 39.128 66.3834 38.2533 67.7488 36.504C69.1141 34.712 69.7968 32.4507 69.7968 29.72C69.7968 27.416 69.2634 25.624 68.1968 24.344C67.1728 23.064 65.7648 22.424 63.9728 22.424C61.7968 22.424 59.9194 23.32 58.3408 25.112C56.8048 26.904 56.0368 29.2507 56.0368 32.152C56.0368 34.2853 56.5914 35.992 57.7008 37.272C58.8101 38.5093 60.3034 39.128 62.1808 39.128ZM117.807 14.552V47H107.951L108.271 42.136C105.925 45.8053 102.447 47.64 97.8393 47.64C94.9379 47.64 92.4633 46.9787 90.4153 45.656C88.3673 44.3333 86.8099 42.4987 85.7433 40.152C84.6766 37.8053 84.1432 35.1173 84.1432 32.088C84.1432 28.4613 84.8899 25.2827 86.3833 22.552C87.8766 19.8213 89.8819 17.7093 92.3993 16.216C94.9166 14.68 97.7326 13.912 100.847 13.912C102.895 13.912 104.709 14.3387 106.287 15.192C107.866 16.0027 109.082 17.0907 109.935 18.456L110.767 14.552H117.807ZM101.807 22.424C99.4606 22.424 97.6046 23.2987 96.2393 25.048C94.9166 26.7973 94.2553 29.0373 94.2553 31.768C94.2553 34.1147 94.7673 35.928 95.7913 37.208C96.8579 38.488 98.2873 39.128 100.079 39.128C102.255 39.128 104.111 38.232 105.647 36.44C107.226 34.648 108.015 32.3013 108.015 29.4C108.015 27.224 107.461 25.5173 106.351 24.28C105.242 23.0427 103.727 22.424 101.807 22.424ZM140.282 47.64C136.911 47.64 133.988 47 131.514 45.72C129.039 44.3973 127.119 42.52 125.754 40.088C124.388 37.656 123.706 34.7547 123.706 31.384C123.706 27.928 124.431 24.8987 125.882 22.296C127.375 19.6507 129.423 17.6027 132.026 16.152C134.628 14.6587 137.658 13.912 141.114 13.912C143.93 13.912 146.426 14.4667 148.602 15.576C150.778 16.6853 152.527 18.4133 153.85 20.76L146.938 26.008C146.255 24.7707 145.444 23.8747 144.506 23.32C143.61 22.7653 142.479 22.488 141.114 22.488C139.023 22.488 137.295 23.2987 135.93 24.92C134.564 26.4987 133.882 28.5893 133.882 31.192C133.882 33.7093 134.479 35.6507 135.674 37.016C136.911 38.3813 138.682 39.064 140.986 39.064C142.223 39.064 143.354 38.7867 144.378 38.232C145.444 37.6347 146.34 36.7173 147.066 35.48L153.786 40.856C152.335 43.3307 150.415 45.08 148.026 46.104C145.679 47.128 143.098 47.64 140.282 47.64ZM171.996 47.64C168.37 47.64 165.234 46.9787 162.588 45.656C159.943 44.2907 157.895 42.392 156.444 39.96C154.994 37.4853 154.268 34.5627 154.268 31.192C154.268 27.7787 154.994 24.7707 156.444 22.168C157.938 19.5653 159.922 17.5387 162.396 16.088C164.914 14.6373 167.751 13.912 170.908 13.912C174.492 13.912 177.415 14.7227 179.676 16.344C181.938 17.9653 183.495 20.2693 184.348 23.256C185.244 26.2 185.436 29.6347 184.924 33.56H164.252C164.508 35.1813 165.362 36.5467 166.812 37.656C168.263 38.7227 170.247 39.256 172.764 39.256C173.916 39.256 175.132 39.0213 176.412 38.552C177.692 38.04 178.78 37.2933 179.676 36.312L185.116 42.072C183.708 43.7787 181.959 45.144 179.868 46.168C177.82 47.1493 175.196 47.64 171.996 47.64ZM171.1 21.016C169.394 21.016 167.943 21.528 166.748 22.552C165.596 23.576 164.828 25.0053 164.444 26.84H176.668C176.711 24.8347 176.22 23.3627 175.196 22.424C174.215 21.4853 172.85 21.016 171.1 21.016ZM214.225 47H202.705L217.745 24.024L203.537 1.56H215.313L223.761 15.192L232.145 1.56H243.345L229.073 23.512L243.921 47H231.953L223.313 32.6L214.225 47Z" fill="url(#paint0_linear_1_18)" shape-rendering="crispEdges"/>
<path d="M10.1723 43.992L9.55831 44.7814L10.1723 43.992ZM4.92425 33.432L4.78192 32.4422L3.84165 32.5774L3.92843 33.5234L4.92425 33.432ZM14.7163 32.024L15.7097 31.9094L15.5918 30.8878L14.5739 31.0342L14.7163 32.024ZM17.3403 37.144L16.7156 37.9249L16.7225 37.9304L16.7294 37.9358L17.3403 37.144ZM28.7323 37.72L29.273 38.5612L29.2803 38.5565L28.7323 37.72ZM28.6683 31.192L28.1538 32.0495L28.6683 31.192ZM22.3323 29.016L22.0959 29.9877L22.1064 29.9902L22.3323 29.016ZM14.3323 26.264L13.8781 27.1549L13.8851 27.1585L13.8921 27.1619L14.3323 26.264ZM9.40425 21.976L10.2488 21.4405L9.40425 21.976ZM15.9963 2.776L16.4135 3.68491L16.4256 3.67913L15.9963 2.776ZM35.9003 4.312L36.5264 3.53228L35.9003 4.312ZM40.7643 13.592L40.9298 14.5782L41.8604 14.422L41.7584 13.4839L40.7643 13.592ZM31.6123 15.128L30.6308 15.3195L30.8173 16.2754L31.7778 16.1142L31.6123 15.128ZM29.2443 11.096L28.6229 11.8795L28.6313 11.8862L28.6399 11.8927L29.2443 11.096ZM20.0283 10.968L20.6235 11.7716L20.6329 11.7646L20.6422 11.7574L20.0283 10.968ZM19.9643 17.816L19.3545 18.6086L19.3643 18.6161L19.3742 18.6234L19.9643 17.816ZM26.0443 20.12L26.2837 19.1491L26.2835 19.149L26.0443 20.12ZM34.1083 22.744L33.7102 23.6613L33.7175 23.6645L33.7249 23.6676L34.1083 22.744ZM39.2923 26.648L38.4799 27.2312L38.4848 27.238L38.4898 27.2447L39.2923 26.648ZM38.9083 40.792L39.7275 41.3655L38.9083 40.792ZM32.5723 45.784L32.1714 44.8678L32.1661 44.8702L32.5723 45.784ZM23.1643 46.576C17.7031 46.576 13.6205 45.4071 10.7862 43.2026L9.55831 44.7814C12.868 47.3555 17.4467 48.576 23.1643 48.576V46.576ZM10.7862 43.2026C7.97568 41.0167 6.32693 37.7754 5.92007 33.3406L3.92843 33.5234C4.3749 38.3899 6.22482 42.1886 9.55831 44.7814L10.7862 43.2026ZM5.06658 34.4218L14.8586 33.0138L14.5739 31.0342L4.78192 32.4422L5.06658 34.4218ZM13.7228 32.1386C14.0036 34.5719 14.9818 36.5378 16.7156 37.9249L17.9649 36.3631C16.7121 35.3608 15.9409 33.9134 15.7097 31.9094L13.7228 32.1386ZM16.7294 37.9358C18.4561 39.2677 20.769 39.872 23.5483 39.872V37.872C21.0369 37.872 19.2111 37.3243 17.9511 36.3522L16.7294 37.9358ZM23.5483 39.872C25.8977 39.872 27.8477 39.4774 29.273 38.5612L28.1915 36.8788C27.2275 37.4986 25.7215 37.872 23.5483 37.872V39.872ZM29.2803 38.5565C30.7929 37.5654 31.5883 36.1238 31.5883 34.328H29.5883C29.5883 35.4335 29.1462 36.2533 28.1842 36.8835L29.2803 38.5565ZM31.5883 34.328C31.5883 32.6033 30.7177 31.2555 29.1827 30.3345L28.1538 32.0495C29.1788 32.6645 29.5883 33.4074 29.5883 34.328H31.5883ZM29.1827 30.3345C27.762 29.482 25.5219 28.7291 22.5581 28.0418L22.1064 29.9902C25.0306 30.6682 27.0145 31.366 28.1538 32.0495L29.1827 30.3345ZM22.5686 28.0443C19.4595 27.2881 16.8656 26.3922 14.7724 25.3661L13.8921 27.1619C16.1509 28.2692 18.8903 29.2079 22.0959 29.9877L22.5686 28.0443ZM14.7864 25.3731C12.7412 24.3304 11.2462 23.0133 10.2488 21.4405L8.55974 22.5115C9.78097 24.4373 11.5713 25.9789 13.8781 27.1549L14.7864 25.3731ZM10.2488 21.4405C9.26713 19.8925 8.74025 17.8739 8.74025 15.32H6.74025C6.74025 18.1421 7.32271 20.5608 8.55974 22.5115L10.2488 21.4405ZM8.74025 15.32C8.74025 12.6855 9.41563 10.3857 10.7483 8.3867L9.0842 7.2773C7.51553 9.6303 6.74025 12.3225 6.74025 15.32H8.74025ZM10.7483 8.3867C12.0865 6.3794 13.9626 4.80978 16.4134 3.68483L15.5791 1.86717C12.8245 3.13155 10.6473 4.9326 9.0842 7.2773L10.7483 8.3867ZM16.4256 3.67913C18.8716 2.51628 21.7283 1.92 25.0203 1.92V-0.0800018C21.4855 -0.0800018 18.3262 0.56105 15.5669 1.87286L16.4256 3.67913ZM25.0203 1.92C29.2835 1.92 32.6734 3.00324 35.2741 5.09171L36.5264 3.53228C33.4951 1.09809 29.6317 -0.0800018 25.0203 -0.0800018V1.92ZM35.2741 5.09171C37.8629 7.17055 39.3692 10.0115 39.7701 13.7001L41.7584 13.4839C41.306 9.32185 39.5696 5.97611 36.5264 3.53228L35.2741 5.09171ZM40.5987 12.6058L31.4467 14.1418L31.7778 16.1142L40.9298 14.5782L40.5987 12.6058ZM32.5937 14.9365C32.2128 12.9839 31.3106 11.4083 29.8486 10.2993L28.6399 11.8927C29.6526 12.661 30.3291 13.7734 30.6308 15.3195L32.5937 14.9365ZM29.8656 10.3125C28.4197 9.16575 26.631 8.624 24.5723 8.624V10.624C26.2682 10.624 27.5941 11.0636 28.6229 11.8795L29.8656 10.3125ZM24.5723 8.624C22.5368 8.624 20.7866 9.11129 19.4143 10.1786L20.6422 11.7574C21.5739 11.0327 22.853 10.624 24.5723 10.624V8.624ZM19.433 10.1644C18.0142 11.2154 17.3003 12.6933 17.3003 14.488H19.3003C19.3003 13.296 19.7383 12.4273 20.6235 11.7716L19.433 10.1644ZM17.3003 14.488C17.3003 16.1728 18.0063 17.5716 19.3545 18.6086L20.574 17.0234C19.7035 16.3538 19.3003 15.5339 19.3003 14.488H17.3003ZM19.3742 18.6234C20.6547 19.5591 22.8506 20.3631 25.805 21.091L26.2835 19.149C23.3499 18.4263 21.4925 17.6942 20.5543 17.0086L19.3742 18.6234ZM25.8048 21.0909C28.8804 21.8493 31.5128 22.7078 33.7102 23.6613L34.5063 21.8267C32.1811 20.8176 29.4374 19.9267 26.2837 19.1491L25.8048 21.0909ZM33.7249 23.6676C35.8482 24.549 37.4133 25.7456 38.4799 27.2312L40.1046 26.0648C38.7818 24.2224 36.891 22.8164 34.4916 21.8204L33.7249 23.6676ZM38.4898 27.2447C39.5583 28.6816 40.1483 30.7085 40.1483 33.432H42.1483C42.1483 30.4381 41.5009 27.9424 40.0947 26.0513L38.4898 27.2447ZM40.1483 33.432C40.1483 36.0143 39.4569 38.2645 38.089 40.2185L39.7275 41.3655C41.3463 39.0529 42.1483 36.3964 42.1483 33.432H40.1483ZM38.089 40.2185C36.7156 42.1806 34.7586 43.7359 32.1714 44.8678L32.9731 46.7002C35.8472 45.4427 38.1143 43.67 39.7275 41.3655L38.089 40.2185ZM32.1661 44.8702C29.6307 45.997 26.6382 46.576 23.1643 46.576V48.576C26.8583 48.576 30.1378 47.9603 32.9784 46.6978L32.1661 44.8702ZM46.2448 59.8H45.2448V60.8H46.2448V59.8ZM46.2448 14.424V13.424H45.2448V14.424H46.2448ZM56.1007 14.424L57.0987 14.488L57.1669 13.424H56.1007V14.424ZM55.7808 19.416L54.7828 19.352L56.6232 19.9548L55.7808 19.416ZM73.6367 15.896L74.1793 15.056L73.6367 15.896ZM78.3087 21.4L77.3984 21.8138V21.8138L78.3087 21.4ZM77.6687 39L76.7914 38.5202L77.6687 39ZM71.6528 45.4L72.163 46.2601L72.1736 46.2536L71.6528 45.4ZM59.1087 47L58.7724 47.9418L58.7828 47.9454L59.1087 47ZM55.9088 45.208L56.542 44.434L54.746 42.9646L54.9113 45.2792L55.9088 45.208ZM56.0368 47H57.0368V46.9643L57.0342 46.9288L56.0368 47ZM56.0368 59.8V60.8H57.0368V59.8H56.0368ZM67.7487 36.504L68.5371 37.1193L68.5442 37.11L67.7487 36.504ZM68.1967 24.344L67.4159 24.9687L67.4221 24.9765L67.4285 24.9842L68.1967 24.344ZM58.3408 25.112L57.5903 24.4509L57.5815 24.4612L58.3408 25.112ZM57.7008 37.272L56.9451 37.9269L56.9506 37.9333L56.9562 37.9395L57.7008 37.272ZM47.2448 59.8V14.424H45.2448V59.8H47.2448ZM46.2448 15.424H56.1007V13.424H46.2448V15.424ZM55.1028 14.36L54.7828 19.352L56.7787 19.48L57.0987 14.488L55.1028 14.36ZM56.6232 19.9548C58.7736 16.5923 61.9221 14.912 66.2128 14.912V12.912C61.2874 12.912 57.4812 14.9011 54.9383 18.8772L56.6232 19.9548ZM66.2128 14.912C68.9587 14.912 71.2365 15.5362 73.0942 16.736L74.1793 15.056C71.941 13.6104 69.2695 12.912 66.2128 12.912V14.912ZM73.0942 16.736C74.9719 17.9487 76.4062 19.631 77.3984 21.8138L79.2191 20.9862C78.078 18.4756 76.3976 16.4886 74.1793 15.056L73.0942 16.736ZM77.3984 21.8138C78.3965 24.0097 78.9088 26.5527 78.9088 29.464H80.9088C80.9088 26.3167 80.3543 23.4836 79.2191 20.9862L77.3984 21.8138ZM78.9088 29.464C78.9088 32.9508 78.1919 35.9593 76.7914 38.5202L78.5461 39.4798C80.1323 36.5794 80.9088 33.2305 80.9088 29.464H78.9088ZM76.7914 38.5202C75.3773 41.106 73.4913 43.1067 71.1319 44.5464L72.1736 46.2536C74.8489 44.6213 76.9736 42.3553 78.5461 39.4798L76.7914 38.5202ZM71.1425 44.5399C68.7896 45.9358 66.1518 46.64 63.2048 46.64V48.64C66.487 48.64 69.4812 47.8509 72.163 46.2601L71.1425 44.5399ZM63.2048 46.64C61.807 46.64 60.5536 46.4404 59.4347 46.0546L58.7828 47.9454C60.1386 48.4129 61.6159 48.64 63.2048 48.64V46.64ZM59.4451 46.0583C58.3533 45.6683 57.388 45.1262 56.542 44.434L55.2755 45.982C56.3068 46.8258 57.4749 47.4783 58.7724 47.9417L59.4451 46.0583ZM54.9113 45.2792L55.0393 47.0713L57.0342 46.9288L56.9062 45.1368L54.9113 45.2792ZM55.0368 47V59.8H57.0368V47H55.0368ZM56.0368 58.8H46.2448V60.8H56.0368V58.8ZM62.1808 40.128C64.8149 40.128 66.97 39.1271 68.5371 37.1193L66.9604 35.8887C65.7969 37.3795 64.2399 38.128 62.1808 38.128V40.128ZM68.5442 37.11C70.0685 35.1094 70.7968 32.6219 70.7968 29.72H68.7968C68.7968 32.2794 68.1597 34.3146 66.9533 35.898L68.5442 37.11ZM70.7968 29.72C70.7968 27.271 70.2299 25.2217 68.965 23.7038L67.4285 24.9842C68.297 26.0263 68.7968 27.561 68.7968 29.72H70.7968ZM68.9776 23.7193C67.7445 22.1779 66.0362 21.424 63.9728 21.424V23.424C65.4933 23.424 66.601 23.9501 67.4159 24.9687L68.9776 23.7193ZM63.9728 21.424C61.4796 21.424 59.3381 22.4671 57.5904 24.451L59.0911 25.773C60.5007 24.1729 62.1139 23.424 63.9728 23.424V21.424ZM57.5815 24.4612C55.8568 26.4734 55.0368 29.0688 55.0368 32.152H57.0368C57.0368 29.4326 57.7527 27.3346 59.1 25.7628L57.5815 24.4612ZM55.0368 32.152C55.0368 34.4615 55.6406 36.4217 56.9451 37.9269L58.4564 36.6171C57.5423 35.5623 57.0368 34.1091 57.0368 32.152H55.0368ZM56.9562 37.9395C58.2809 39.4171 60.0602 40.128 62.1808 40.128V38.128C60.5467 38.128 59.3393 37.6016 58.4453 36.6045L56.9562 37.9395ZM117.807 14.552H118.807V13.552H117.807V14.552ZM117.807 47V48H118.807V47H117.807ZM107.951 47L106.953 46.9344L106.883 48H107.951V47ZM108.271 42.136L109.269 42.2016L107.429 41.5972L108.271 42.136ZM90.4153 45.656L90.9578 44.816L90.4153 45.656ZM85.7432 40.152L86.6536 39.7382L85.7432 40.152ZM86.3832 22.552L85.5059 22.0722L86.3832 22.552ZM92.3992 16.216L92.9095 17.0761L92.9201 17.0696L92.3992 16.216ZM106.287 15.192L105.812 16.0717L105.821 16.0767L105.83 16.0816L106.287 15.192ZM109.935 18.456L109.087 18.986L110.398 21.083L110.913 18.6644L109.935 18.456ZM110.767 14.552V13.552H109.958L109.789 14.3436L110.767 14.552ZM96.2393 25.048L95.4509 24.4327L95.4462 24.4388L95.4416 24.4449L96.2393 25.048ZM95.7913 37.208L95.0104 37.8327L95.0166 37.8405L95.023 37.8482L95.7913 37.208ZM105.647 36.44L104.897 35.7789L104.888 35.7892L105.647 36.44ZM106.351 24.28L107.096 23.6125L106.351 24.28ZM116.807 14.552V47H118.807V14.552H116.807ZM117.807 46H107.951V48H117.807V46ZM108.949 47.0657L109.269 42.2016L107.273 42.0704L106.953 46.9344L108.949 47.0657ZM107.429 41.5972C105.278 44.9597 102.13 46.64 97.8392 46.64V48.64C102.765 48.64 106.571 46.6509 109.114 42.6748L107.429 41.5972ZM97.8392 46.64C95.0933 46.64 92.8155 46.0158 90.9578 44.816L89.8727 46.496C92.111 47.9416 94.7825 48.64 97.8392 48.64V46.64ZM90.9578 44.816C89.0801 43.6033 87.6458 41.921 86.6536 39.7382L84.8329 40.5658C85.974 43.0764 87.6544 45.0634 89.8727 46.496L90.9578 44.816ZM86.6536 39.7382C85.6555 37.5423 85.1432 34.9993 85.1432 32.088H83.1432C83.1432 35.2353 83.6977 38.0684 84.8329 40.5658L86.6536 39.7382ZM85.1432 32.088C85.1432 28.6012 85.8601 25.5927 87.2606 23.0318L85.5059 22.0722C83.9197 24.9726 83.1432 28.3215 83.1432 32.088H85.1432ZM87.2606 23.0318C88.6736 20.4482 90.5562 18.472 92.9095 17.0761L91.889 15.3559C89.2076 16.9466 87.0796 19.1945 85.5059 22.0722L87.2606 23.0318ZM92.9201 17.0696C95.2716 15.6348 97.9056 14.912 100.847 14.912V12.912C97.5596 12.912 94.5615 13.7252 91.8784 15.3624L92.9201 17.0696ZM100.847 14.912C102.753 14.912 104.399 15.3079 105.812 16.0717L106.763 14.3123C105.019 13.3695 103.038 12.912 100.847 12.912V14.912ZM105.83 16.0816C107.266 16.8185 108.339 17.7889 109.087 18.986L110.783 17.926C109.825 16.3924 108.466 15.1868 106.744 14.3024L105.83 16.0816ZM110.913 18.6644L111.745 14.7604L109.789 14.3436L108.957 18.2476L110.913 18.6644ZM110.767 15.552H117.807V13.552H110.767V15.552ZM101.807 21.424C99.1731 21.424 97.018 22.4249 95.4509 24.4327L97.0276 25.6633C98.1911 24.1725 99.7481 23.424 101.807 23.424V21.424ZM95.4416 24.4449C93.9583 26.4067 93.2552 28.8739 93.2552 31.768H95.2552C95.2552 29.2007 95.8749 27.188 97.0369 25.6511L95.4416 24.4449ZM93.2552 31.768C93.2552 34.2461 93.7945 36.3129 95.0104 37.8327L96.5721 36.5833C95.74 35.5431 95.2552 33.9832 95.2552 31.768H93.2552ZM95.023 37.8482C96.2955 39.3751 98.016 40.128 100.079 40.128V38.128C98.5585 38.128 97.4204 37.6009 96.5595 36.5678L95.023 37.8482ZM100.079 40.128C102.574 40.128 104.699 39.0832 106.407 37.0908L104.888 35.7892C103.524 37.3808 101.936 38.128 100.079 38.128V40.128ZM106.398 37.101C108.17 35.0891 109.015 32.49 109.015 29.4H107.015C107.015 32.1127 106.282 34.2068 104.897 35.779L106.398 37.101ZM109.015 29.4C109.015 27.0556 108.415 25.084 107.096 23.6125L105.607 24.9475C106.506 25.9506 107.015 27.3924 107.015 29.4H109.015ZM107.096 23.6125C105.767 22.1298 103.963 21.424 101.807 21.424V23.424C103.492 23.424 104.717 23.9555 105.607 24.9475L107.096 23.6125ZM131.514 45.72L131.042 46.602L131.054 46.6082L131.514 45.72ZM125.754 40.088L126.626 39.5985L125.754 40.088ZM125.882 22.296L125.011 21.8044L125.008 21.8091L125.882 22.296ZM132.026 16.152L132.513 17.0255L132.523 17.0194L132.026 16.152ZM153.85 20.76L154.454 21.5564L155.149 21.0289L154.721 20.269L153.85 20.76ZM146.938 26.008L146.062 26.4911L146.621 27.504L147.542 26.8044L146.938 26.008ZM144.506 23.32L143.979 24.1703L143.988 24.1757L143.997 24.1809L144.506 23.32ZM135.93 24.92L136.686 25.5742L136.695 25.5641L135.93 24.92ZM135.674 37.016L134.921 37.6745L134.927 37.6811L134.933 37.6875L135.674 37.016ZM144.378 38.232L144.854 39.1114L144.866 39.1045L144.378 38.232ZM147.066 35.48L147.69 34.6991L146.788 33.9769L146.203 34.9743L147.066 35.48ZM153.786 40.856L154.648 41.3617L155.086 40.6155L154.41 40.0751L153.786 40.856ZM148.026 46.104L147.632 45.1848L147.626 45.1875L148.026 46.104ZM140.282 46.64C137.038 46.64 134.279 46.0245 131.973 44.8318L131.054 46.6082C133.698 47.9755 136.784 48.64 140.282 48.64V46.64ZM131.985 44.8381C129.678 43.6047 127.897 41.8631 126.626 39.5985L124.882 40.5775C126.341 43.1769 128.401 45.1899 131.042 46.6019L131.985 44.8381ZM126.626 39.5985C125.36 37.3442 124.706 34.6188 124.706 31.384H122.706C122.706 34.8905 123.417 37.9678 124.882 40.5775L126.626 39.5985ZM124.706 31.384C124.706 28.0709 125.4 25.2144 126.755 22.7829L125.008 21.8091C123.462 24.5829 122.706 27.7851 122.706 31.384H124.706ZM126.753 22.7876C128.157 20.2992 130.074 18.3848 132.513 17.0255L131.539 15.2785C128.772 16.8206 126.593 19.0022 125.011 21.8044L126.753 22.7876ZM132.523 17.0194C134.953 15.6254 137.806 14.912 141.114 14.912V12.912C137.51 12.912 134.304 13.6919 131.528 15.2846L132.523 17.0194ZM141.114 14.912C143.796 14.912 146.132 15.4395 148.148 16.4669L149.056 14.6851C146.719 13.4938 144.063 12.912 141.114 12.912V14.912ZM148.148 16.4669C150.13 17.4778 151.742 19.0574 152.979 21.251L154.721 20.269C153.312 17.7692 151.425 15.8929 149.056 14.6851L148.148 16.4669ZM153.245 19.9636L146.333 25.2116L147.542 26.8044L154.454 21.5564L153.245 19.9636ZM147.813 25.5249C147.069 24.1764 146.146 23.1278 145.014 22.4591L143.997 24.1809C144.743 24.6215 145.441 25.3649 146.062 26.4911L147.813 25.5249ZM145.032 22.4697C143.938 21.7922 142.611 21.488 141.114 21.488V23.488C142.347 23.488 143.282 23.7385 143.979 24.1703L145.032 22.4697ZM141.114 21.488C138.723 21.488 136.717 22.4325 135.165 24.2759L136.695 25.5641C137.873 24.1648 139.323 23.488 141.114 23.488V21.488ZM135.173 24.2658C133.615 26.0678 132.882 28.4105 132.882 31.192H134.882C134.882 28.7682 135.514 26.9295 136.686 25.5742L135.173 24.2658ZM132.882 31.192C132.882 33.8578 133.515 36.0669 134.921 37.6745L136.426 36.3575C135.444 35.2344 134.882 33.5609 134.882 31.192H132.882ZM134.933 37.6875C136.405 39.3123 138.475 40.064 140.986 40.064V38.064C138.888 38.064 137.417 37.4504 136.415 36.3445L134.933 37.6875ZM140.986 40.064C142.379 40.064 143.675 39.7501 144.854 39.1113L143.901 37.3527C143.033 37.8232 142.067 38.064 140.986 38.064V40.064ZM144.866 39.1045C146.113 38.4063 147.129 37.3496 147.928 35.9857L146.203 34.9743C145.552 36.0851 144.776 36.863 143.889 37.3595L144.866 39.1045ZM146.441 36.2609L153.161 41.6369L154.41 40.0751L147.69 34.6991L146.441 36.2609ZM152.923 40.3503C151.569 42.6607 149.804 44.2538 147.632 45.1849L148.42 47.0231C151.026 45.9062 153.101 44.0007 154.648 41.3617L152.923 40.3503ZM147.626 45.1875C145.417 46.1511 142.974 46.64 140.282 46.64V48.64C143.222 48.64 145.941 48.1049 148.426 47.0205L147.626 45.1875ZM162.588 45.656L162.13 46.5447L162.141 46.5504L162.588 45.656ZM156.444 39.96L155.582 40.4657L155.585 40.4723L156.444 39.96ZM156.444 22.168L155.577 21.6703L155.571 21.6811L156.444 22.168ZM162.396 16.088L161.897 15.2215L161.891 15.2253L162.396 16.088ZM179.676 16.344L180.259 15.5313L179.676 16.344ZM184.348 23.256L183.387 23.5307L183.389 23.539L183.392 23.5472L184.348 23.256ZM184.924 33.56V34.56H185.802L185.916 33.6893L184.924 33.56ZM164.252 33.56V32.56H163.082L163.264 33.716L164.252 33.56ZM166.812 37.656L166.205 38.4504L166.212 38.4561L166.22 38.4617L166.812 37.656ZM176.412 38.552L176.757 39.4909L176.77 39.4859L176.784 39.4805L176.412 38.552ZM179.676 36.312L180.403 35.6254L179.664 34.8425L178.938 35.6377L179.676 36.312ZM185.116 42.072L185.888 42.7084L186.45 42.0273L185.843 41.3854L185.116 42.072ZM179.868 46.168L180.3 47.0698L180.308 47.0661L179.868 46.168ZM166.748 22.552L166.097 21.7927L166.091 21.7986L166.084 21.8046L166.748 22.552ZM164.444 26.84L163.465 26.6351L163.213 27.84H164.444V26.84ZM176.668 26.84V27.84H177.647L177.668 26.8613L176.668 26.84ZM175.196 22.424L174.505 23.1466L174.513 23.154L174.521 23.1612L175.196 22.424ZM171.996 46.64C168.49 46.64 165.514 46.0009 163.035 44.7616L162.141 46.5504C164.953 47.9565 168.249 48.64 171.996 48.64V46.64ZM163.047 44.7674C160.559 43.4831 158.653 41.711 157.303 39.4477L155.585 40.4723C157.137 43.073 159.327 45.0983 162.13 46.5446L163.047 44.7674ZM157.307 39.4543C155.961 37.158 155.268 34.4163 155.268 31.192H153.268C153.268 34.709 154.026 37.8127 155.582 40.4657L157.307 39.4543ZM155.268 31.192C155.268 27.924 155.961 25.0882 157.318 22.6549L155.571 21.6811C154.026 24.4532 153.268 27.6334 153.268 31.192H155.268ZM157.312 22.6657C158.722 20.2069 160.585 18.3091 162.902 16.9507L161.891 15.2253C159.259 16.7682 157.153 18.9238 155.577 21.6703L157.312 22.6657ZM162.896 16.9544C165.248 15.5988 167.911 14.912 170.908 14.912V12.912C167.591 12.912 164.579 13.6759 161.897 15.2216L162.896 16.9544ZM170.908 14.912C174.343 14.912 177.045 15.6881 179.094 17.1567L180.259 15.5313C177.785 13.7572 174.641 12.912 170.908 12.912V14.912ZM179.094 17.1567C181.15 18.6313 182.588 20.7343 183.387 23.5307L185.31 22.9813C184.402 19.8044 182.725 17.2994 180.259 15.5313L179.094 17.1567ZM183.392 23.5472C184.236 26.322 184.431 29.6075 183.933 33.4307L185.916 33.6893C186.441 29.6618 186.252 26.078 185.305 22.9648L183.392 23.5472ZM184.924 32.56H164.252V34.56H184.924V32.56ZM163.264 33.716C163.565 35.6205 164.575 37.2041 166.205 38.4504L167.42 36.8616C166.148 35.8893 165.451 34.7422 165.24 33.404L163.264 33.716ZM166.22 38.4617C167.899 39.696 170.116 40.256 172.764 40.256V38.256C170.377 38.256 168.627 37.7493 167.405 36.8503L166.22 38.4617ZM172.764 40.256C174.053 40.256 175.386 39.9934 176.757 39.4909L176.068 37.6131C174.879 38.0493 173.779 38.256 172.764 38.256V40.256ZM176.784 39.4805C178.198 38.9146 179.413 38.0831 180.415 36.9863L178.938 35.6377C178.147 36.5035 177.186 37.1653 176.041 37.6235L176.784 39.4805ZM178.949 36.9986L184.389 42.7586L185.843 41.3854L180.403 35.6254L178.949 36.9986ZM184.345 41.4356C183.032 43.0267 181.398 44.3052 179.428 45.2699L180.308 47.0661C182.52 45.9828 184.384 44.5306 185.888 42.7084L184.345 41.4356ZM179.436 45.2662C177.567 46.162 175.104 46.64 171.996 46.64V48.64C175.289 48.64 178.074 48.1366 180.3 47.0698L179.436 45.2662ZM171.1 20.016C169.177 20.016 167.489 20.5998 166.097 21.7927L167.399 23.3113C168.397 22.4562 169.611 22.016 171.1 22.016V20.016ZM166.084 21.8046C164.739 22.9996 163.884 24.637 163.465 26.6351L165.423 27.0449C165.773 25.3737 166.453 24.1524 167.413 23.2994L166.084 21.8046ZM164.444 27.84H176.668V25.84H164.444V27.84ZM177.668 26.8613C177.714 24.6991 177.188 22.8936 175.872 21.6868L174.521 23.1612C175.252 23.8317 175.708 24.9703 175.668 26.8187L177.668 26.8613ZM175.887 21.7014C174.671 20.5377 173.03 20.016 171.1 20.016V22.016C172.669 22.016 173.759 22.4329 174.505 23.1466L175.887 21.7014ZM214.225 47V48H214.777L215.071 47.5337L214.225 47ZM202.705 47L201.869 46.4523L200.855 48H202.705V47ZM217.745 24.024L218.582 24.5717L218.934 24.0333L218.59 23.4895L217.745 24.024ZM203.537 1.56V0.559998H201.722L202.692 2.09453L203.537 1.56ZM215.313 1.56L216.163 1.03323L215.87 0.559998H215.313V1.56ZM223.761 15.192L222.911 15.7188L223.764 17.0956L224.613 15.7159L223.761 15.192ZM232.145 1.56V0.559998H231.586L231.293 1.03612L232.145 1.56ZM243.345 1.56L244.184 2.10507L245.188 0.559998H243.345V1.56ZM229.073 23.512L228.235 22.9669L227.885 23.5044L228.228 24.0463L229.073 23.512ZM243.921 47V48H245.736L244.767 46.4657L243.921 47ZM231.953 47L231.096 47.5145L231.387 48H231.953V47ZM223.313 32.6L224.171 32.0855L223.335 30.6922L222.468 32.0663L223.313 32.6ZM214.225 46H202.705V48H214.225V46ZM203.542 47.5477L218.582 24.5717L216.909 23.4763L201.869 46.4523L203.542 47.5477ZM218.59 23.4895L204.382 1.02546L202.692 2.09453L216.9 24.5585L218.59 23.4895ZM203.537 2.56H215.313V0.559998H203.537V2.56ZM214.463 2.08676L222.911 15.7188L224.611 14.6652L216.163 1.03323L214.463 2.08676ZM224.613 15.7159L232.997 2.08387L231.293 1.03612L222.909 14.6681L224.613 15.7159ZM232.145 2.56H243.345V0.559998H232.145V2.56ZM242.507 1.01492L228.235 22.9669L229.912 24.0571L244.184 2.10507L242.507 1.01492ZM228.228 24.0463L243.076 47.5343L244.767 46.4657L229.919 22.9777L228.228 24.0463ZM243.921 46H231.953V48H243.921V46ZM232.811 46.4855L224.171 32.0855L222.456 33.1145L231.096 47.5145L232.811 46.4855ZM222.468 32.0663L213.38 46.4663L215.071 47.5337L224.159 33.1337L222.468 32.0663Z" fill="#BD00FF"/>
</g>
<defs>
<filter id="filter0_dddddd_1_18" x="0.92425" y="0.919983" width="246.997" height="66.88" filterUnits="userSpaceOnUse" color-interpolation-filters="sRGB">
<feFlood flood-opacity="0" result="BackgroundImageFix"/>
<feColorMatrix in="SourceAlpha" type="matrix" values="0 0 0 0 0 0 0 0 0 0 0 0 0 0 0 0 0 0 127 0" result="hardAlpha"/>
<feOffset dy="4"/>
<feGaussianBlur stdDeviation="2"/>
<feComposite in2="hardAlpha" operator="out"/>
<feColorMatrix type="matrix" values="0 0 0 0 0 0 0 0 0 0 0 0 0 0 0 0 0 0 0.25 0"/>
<feBlend mode="normal" in2="BackgroundImageFix" result="effect1_dropShadow_1_18"/>
<feColorMatrix in="SourceAlpha" type="matrix" values="0 0 0 0 0 0 0 0 0 0 0 0 0 0 0 0 0 0 127 0" result="hardAlpha"/>
<feOffset dy="4"/>
<feGaussianBlur stdDeviation="2"/>
<feComposite in2="hardAlpha" operator="out"/>
<feColorMatrix type="matrix" values="0 0 0 0 0 0 0 0 0 0 0 0 0 0 0 0 0 0 0.25 0"/>
<feBlend mode="normal" in2="effect1_dropShadow_1_18" result="effect2_dropShadow_1_18"/>
<feColorMatrix in="SourceAlpha" type="matrix" values="0 0 0 0 0 0 0 0 0 0 0 0 0 0 0 0 0 0 127 0" result="hardAlpha"/>
<feOffset dy="4"/>
<feGaussianBlur stdDeviation="2"/>
<feComposite in2="hardAlpha" operator="out"/>
<feColorMatrix type="matrix" values="0 0 0 0 0 0 0 0 0 0 0 0 0 0 0 0 0 0 0.25 0"/>
<feBlend mode="normal" in2="effect2_dropShadow_1_18" result="effect3_dropShadow_1_18"/>
<feColorMatrix in="SourceAlpha" type="matrix" values="0 0 0 0 0 0 0 0 0 0 0 0 0 0 0 0 0 0 127 0" result="hardAlpha"/>
<feOffset dy="4"/>
<feGaussianBlur stdDeviation="2"/>
<feComposite in2="hardAlpha" operator="out"/>
<feColorMatrix type="matrix" values="0 0 0 0 0 0 0 0 0 0 0 0 0 0 0 0 0 0 0.25 0"/>
<feBlend mode="normal" in2="effect3_dropShadow_1_18" result="effect4_dropShadow_1_18"/>
<feColorMatrix in="SourceAlpha" type="matrix" values="0 0 0 0 0 0 0 0 0 0 0 0 0 0 0 0 0 0 127 0" result="hardAlpha"/>
<feOffset dy="4"/>
<feGaussianBlur stdDeviation="2"/>
<feComposite in2="hardAlpha" operator="out"/>
<feColorMatrix type="matrix" values="0 0 0 0 0 0 0 0 0 0 0 0 0 0 0 0 0 0 0.25 0"/>
<feBlend mode="normal" in2="effect4_dropShadow_1_18" result="effect5_dropShadow_1_18"/>
<feColorMatrix in="SourceAlpha" type="matrix" values="0 0 0 0 0 0 0 0 0 0 0 0 0 0 0 0 0 0 127 0" result="hardAlpha"/>
<feOffset dy="4"/>
<feGaussianBlur stdDeviation="2"/>
<feComposite in2="hardAlpha" operator="out"/>
<feColorMatrix type="matrix" values="0 0 0 0 0 0 0 0 0 0 0 0 0 0 0 0 0 0 0.25 0"/>
<feBlend mode="normal" in2="effect5_dropShadow_1_18" result="effect6_dropShadow_1_18"/>
<feBlend mode="normal" in="SourceGraphic" in2="effect6_dropShadow_1_18" result="shape"/>
</filter>
<linearGradient id="paint0_linear_1_18" x1="124" y1="-17" x2="124" y2="63" gradientUnits="userSpaceOnUse">
<stop stop-color="white"/>
<stop offset="1" stop-color="white" stop-opacity="0"/>
</linearGradient>
</defs>
</svg>
